<svg width="215" height="63" viewBox="0 0 215 63" fill="none" xmlns="http://www.w3.org/2000/svg">
<rect width="214.303" height="63" rx="31.5" fill="black"/>
<path d="M36.9023 32.1055L20.1523 49.685C20.3404 50.3528 20.6784 50.9686 21.1405 51.4855C21.6026 52.0024 22.1766 52.4065 22.8185 52.6671C23.4604 52.9277 24.1533 53.0379 24.8442 52.9891C25.5352 52.9403 26.2058 52.7339 26.8049 52.3857L45.6518 41.6329L36.9023 32.1055Z" fill="#EA4335"/>
<path d="M53.8388 29.1176L45.6884 24.4414L36.5146 32.506L45.7259 41.6083L53.8138 36.9821C54.5303 36.6063 55.1305 36.0412 55.5493 35.348C55.9681 34.6549 56.1894 33.8601 56.1894 33.0499C56.1894 32.2397 55.9681 31.4449 55.5493 30.7517C55.1305 30.0586 54.5303 29.4934 53.8138 29.1176H53.8388Z" fill="#FBBC04"/>
<path d="M20.1498 16.3262C20.0486 16.7011 19.9982 17.088 20 17.4765V48.5345C20.0011 48.9227 20.0514 49.3093 20.1498 49.6848L37.474 32.5554L20.1498 16.3262Z" fill="#4285F4"/>
<path d="M37.0271 33.0052L45.6892 24.4405L26.8673 13.6377C26.1592 13.2222 25.3539 13.0022 24.5333 13C23.5423 12.998 22.5778 13.3208 21.7868 13.9189C20.9959 14.5171 20.4219 15.358 20.1523 16.3134L37.0271 33.0052Z" fill="#34A853"/>
<path d="M73.6787 25.1484C72.8818 25.1484 72.1917 24.974 71.6084 24.625C71.0303 24.2708 70.5824 23.7682 70.2646 23.1172C69.9521 22.4661 69.7959 21.6927 69.7959 20.7969V20.7812C69.7959 19.8802 69.9521 19.1042 70.2646 18.4531C70.5824 17.8021 71.0303 17.3021 71.6084 16.9531C72.1917 16.6042 72.8818 16.4297 73.6787 16.4297C74.4808 16.4297 75.1709 16.6042 75.749 16.9531C76.3271 17.3021 76.7725 17.8021 77.085 18.4531C77.4027 19.1042 77.5615 19.8802 77.5615 20.7812V20.7969C77.5615 21.6927 77.4027 22.4661 77.085 23.1172C76.7725 23.7682 76.3271 24.2708 75.749 24.625C75.1709 24.974 74.4808 25.1484 73.6787 25.1484ZM73.6787 23.9453C74.21 23.9453 74.6605 23.8203 75.0303 23.5703C75.4001 23.3203 75.6813 22.9609 75.874 22.4922C76.0719 22.0234 76.1709 21.4583 76.1709 20.7969V20.7812C76.1709 20.1146 76.0719 19.5469 75.874 19.0781C75.6813 18.6094 75.4001 18.2526 75.0303 18.0078C74.6605 17.7578 74.21 17.6328 73.6787 17.6328C73.1475 17.6328 72.6969 17.7578 72.3271 18.0078C71.9574 18.2526 71.6735 18.6094 71.4756 19.0781C71.2829 19.5469 71.1865 20.1146 71.1865 20.7812V20.7969C71.1865 21.4583 71.2829 22.0234 71.4756 22.4922C71.6735 22.9609 71.9574 23.3203 72.3271 23.5703C72.6969 23.8203 73.1475 23.9453 73.6787 23.9453ZM83.8584 25.1484C83.4678 25.1484 83.1058 25.0885 82.7725 24.9688C82.4391 24.849 82.1423 24.6797 81.8818 24.4609C81.6214 24.237 81.4053 23.9688 81.2334 23.6562H81.1084V25H79.749V13.2344H81.1084V17.9062H81.2334C81.3896 17.6042 81.598 17.3438 81.8584 17.125C82.124 16.9062 82.4261 16.737 82.7646 16.6172C83.1084 16.4922 83.473 16.4297 83.8584 16.4297C84.5719 16.4297 85.1917 16.6094 85.7178 16.9688C86.249 17.3281 86.6605 17.8333 86.9521 18.4844C87.2438 19.1354 87.3896 19.901 87.3896 20.7812V20.7969C87.3896 21.6719 87.2438 22.4375 86.9521 23.0938C86.6605 23.7448 86.249 24.25 85.7178 24.6094C85.1917 24.9688 84.5719 25.1484 83.8584 25.1484ZM83.5459 23.9453C84.0615 23.9453 84.5016 23.8203 84.8662 23.5703C85.2308 23.3151 85.5094 22.9531 85.7021 22.4844C85.9001 22.0104 85.999 21.4479 85.999 20.7969V20.7812C85.999 20.125 85.9001 19.5625 85.7021 19.0938C85.5094 18.625 85.2308 18.2656 84.8662 18.0156C84.5016 17.7604 84.0615 17.6328 83.5459 17.6328C83.0355 17.6328 82.5954 17.7604 82.2256 18.0156C81.8558 18.2708 81.5719 18.6328 81.374 19.1016C81.1761 19.5703 81.0771 20.1302 81.0771 20.7812V20.7969C81.0771 21.4427 81.1761 22.0026 81.374 22.4766C81.5719 22.9453 81.8558 23.3073 82.2256 23.5625C82.5954 23.8177 83.0355 23.9453 83.5459 23.9453ZM92.4912 25.0625C91.6266 25.0625 90.999 24.888 90.6084 24.5391C90.223 24.1901 90.0303 23.6146 90.0303 22.8125V17.7031H88.7021V16.5781H90.0303V14.3984H91.4365V16.5781H93.2803V17.7031H91.4365V22.4688C91.4365 22.9635 91.5303 23.3203 91.7178 23.5391C91.9053 23.7526 92.2178 23.8594 92.6553 23.8594C92.7751 23.8594 92.8766 23.8568 92.96 23.8516C93.0485 23.8464 93.1553 23.8385 93.2803 23.8281V24.9844C93.1501 25.0052 93.0199 25.0234 92.8896 25.0391C92.7594 25.0547 92.6266 25.0625 92.4912 25.0625ZM98.6396 25.1484C97.8376 25.1484 97.1475 24.9714 96.5693 24.6172C95.9964 24.263 95.5537 23.763 95.2412 23.1172C94.9339 22.4661 94.7803 21.7005 94.7803 20.8203V20.8125C94.7803 19.9427 94.9339 19.1797 95.2412 18.5234C95.5537 17.8672 95.9938 17.3542 96.5615 16.9844C97.1292 16.6146 97.7933 16.4297 98.5537 16.4297C99.3193 16.4297 99.9756 16.6068 100.522 16.9609C101.075 17.3151 101.496 17.8099 101.788 18.4453C102.085 19.0755 102.233 19.8099 102.233 20.6484V21.1797H95.4834V20.0938H101.538L100.866 21.0859V20.5469C100.866 19.8854 100.767 19.3411 100.569 18.9141C100.371 18.487 100.098 18.1693 99.749 17.9609C99.4001 17.7474 98.999 17.6406 98.5459 17.6406C98.0928 17.6406 97.6865 17.7526 97.3271 17.9766C96.973 18.1953 96.6917 18.5208 96.4834 18.9531C96.2751 19.3854 96.1709 19.9167 96.1709 20.5469V21.0859C96.1709 21.6849 96.2725 22.1979 96.4756 22.625C96.6787 23.0469 96.9678 23.3724 97.3428 23.6016C97.7178 23.8255 98.1605 23.9375 98.6709 23.9375C99.0511 23.9375 99.3818 23.8854 99.6631 23.7812C99.9443 23.6771 100.176 23.5443 100.358 23.3828C100.541 23.2214 100.668 23.0573 100.741 22.8906L100.772 22.8203H102.132L102.116 22.8828C102.043 23.1693 101.913 23.4479 101.726 23.7188C101.543 23.9844 101.306 24.2266 101.015 24.4453C100.723 24.6589 100.377 24.8307 99.9756 24.9609C99.5798 25.0859 99.1344 25.1484 98.6396 25.1484ZM104.343 25V16.5781H105.702V17.8438H105.827C106.041 17.3958 106.348 17.0495 106.749 16.8047C107.15 16.5547 107.66 16.4297 108.28 16.4297C109.228 16.4297 109.955 16.7005 110.46 17.2422C110.97 17.7786 111.226 18.5469 111.226 19.5469V25H109.866V19.875C109.866 19.1146 109.705 18.5521 109.382 18.1875C109.064 17.8177 108.569 17.6328 107.897 17.6328C107.45 17.6328 107.062 17.7292 106.733 17.9219C106.405 18.1146 106.15 18.388 105.968 18.7422C105.791 19.0964 105.702 19.5208 105.702 20.0156V25H104.343ZM117.124 25.1484C116.322 25.1484 115.632 24.9714 115.054 24.6172C114.481 24.263 114.038 23.763 113.726 23.1172C113.418 22.4661 113.265 21.7005 113.265 20.8203V20.8125C113.265 19.9427 113.418 19.1797 113.726 18.5234C114.038 17.8672 114.478 17.3542 115.046 16.9844C115.614 16.6146 116.278 16.4297 117.038 16.4297C117.804 16.4297 118.46 16.6068 119.007 16.9609C119.559 17.3151 119.981 17.8099 120.272 18.4453C120.569 19.0755 120.718 19.8099 120.718 20.6484V21.1797H113.968V20.0938H120.022L119.351 21.0859V20.5469C119.351 19.8854 119.252 19.3411 119.054 18.9141C118.856 18.487 118.582 18.1693 118.233 17.9609C117.884 17.7474 117.483 17.6406 117.03 17.6406C116.577 17.6406 116.171 17.7526 115.812 17.9766C115.457 18.1953 115.176 18.5208 114.968 18.9531C114.759 19.3854 114.655 19.9167 114.655 20.5469V21.0859C114.655 21.6849 114.757 22.1979 114.96 22.625C115.163 23.0469 115.452 23.3724 115.827 23.6016C116.202 23.8255 116.645 23.9375 117.155 23.9375C117.535 23.9375 117.866 23.8854 118.147 23.7812C118.429 23.6771 118.66 23.5443 118.843 23.3828C119.025 23.2214 119.153 23.0573 119.226 22.8906L119.257 22.8203H120.616L120.601 22.8828C120.528 23.1693 120.397 23.4479 120.21 23.7188C120.028 23.9844 119.791 24.2266 119.499 24.4453C119.207 24.6589 118.861 24.8307 118.46 24.9609C118.064 25.0859 117.619 25.1484 117.124 25.1484ZM122.632 25V24.0156L127.491 17.8281V17.7031H122.64V16.5781H129.093V17.5859L124.257 23.75V23.875H129.116V25H122.632ZM136.03 25V13.2344H137.39V25H136.03ZM139.991 18.1719L140.671 13.7266H142.226L140.999 18.1719H139.991ZM146.202 25.1484C145.671 25.1484 145.192 25.0469 144.765 24.8438C144.343 24.6406 144.007 24.3516 143.757 23.9766C143.512 23.6016 143.39 23.1589 143.39 22.6484V22.6328C143.39 22.1328 143.509 21.7057 143.749 21.3516C143.989 20.9922 144.338 20.7109 144.796 20.5078C145.254 20.3047 145.809 20.1849 146.46 20.1484L149.554 19.9609V21.0469L146.624 21.2344C145.983 21.2708 145.515 21.4036 145.218 21.6328C144.926 21.862 144.78 22.1849 144.78 22.6016V22.6172C144.78 23.0443 144.942 23.3776 145.265 23.6172C145.588 23.8516 145.994 23.9688 146.483 23.9688C146.947 23.9688 147.358 23.8776 147.718 23.6953C148.077 23.5078 148.358 23.2552 148.562 22.9375C148.77 22.6198 148.874 22.2604 148.874 21.8594V19.2344C148.874 18.7135 148.715 18.3177 148.397 18.0469C148.085 17.7708 147.614 17.6328 146.983 17.6328C146.478 17.6328 146.064 17.724 145.741 17.9062C145.418 18.0833 145.202 18.3359 145.093 18.6641L145.085 18.6875H143.726L143.733 18.6406C143.806 18.1979 143.989 17.8125 144.28 17.4844C144.577 17.151 144.96 16.8932 145.429 16.7109C145.897 16.5234 146.431 16.4297 147.03 16.4297C147.718 16.4297 148.299 16.5417 148.772 16.7656C149.252 16.9896 149.614 17.3125 149.858 17.7344C150.108 18.151 150.233 18.651 150.233 19.2344V25H148.874V23.7578H148.749C148.572 24.0547 148.356 24.3073 148.101 24.5156C147.851 24.724 147.567 24.8828 147.249 24.9922C146.931 25.0964 146.582 25.1484 146.202 25.1484ZM152.718 27.8125V16.5781H154.077V17.9219H154.202C154.374 17.6094 154.59 17.3438 154.851 17.125C155.111 16.901 155.408 16.7292 155.741 16.6094C156.075 16.4896 156.437 16.4297 156.827 16.4297C157.541 16.4297 158.16 16.612 158.687 16.9766C159.218 17.3359 159.629 17.8411 159.921 18.4922C160.213 19.1432 160.358 19.9062 160.358 20.7812V20.7969C160.358 21.6771 160.213 22.4427 159.921 23.0938C159.629 23.7448 159.218 24.25 158.687 24.6094C158.16 24.9688 157.541 25.1484 156.827 25.1484C156.442 25.1484 156.077 25.0885 155.733 24.9688C155.395 24.8438 155.093 24.6719 154.827 24.4531C154.567 24.2344 154.358 23.974 154.202 23.6719H154.077V27.8125H152.718ZM156.515 23.9453C157.03 23.9453 157.47 23.8203 157.835 23.5703C158.2 23.3151 158.478 22.9531 158.671 22.4844C158.869 22.0104 158.968 21.4479 158.968 20.7969V20.7812C158.968 20.125 158.869 19.5625 158.671 19.0938C158.478 18.625 158.2 18.2656 157.835 18.0156C157.47 17.7604 157.03 17.6328 156.515 17.6328C156.004 17.6328 155.564 17.7604 155.194 18.0156C154.825 18.2708 154.541 18.6328 154.343 19.1016C154.145 19.5703 154.046 20.1302 154.046 20.7812V20.7969C154.046 21.4427 154.145 22.0026 154.343 22.4766C154.541 22.9453 154.825 23.3073 155.194 23.5625C155.564 23.8177 156.004 23.9453 156.515 23.9453ZM162.483 27.8125V16.5781H163.843V17.9219H163.968C164.14 17.6094 164.356 17.3438 164.616 17.125C164.877 16.901 165.174 16.7292 165.507 16.6094C165.84 16.4896 166.202 16.4297 166.593 16.4297C167.306 16.4297 167.926 16.612 168.452 16.9766C168.983 17.3359 169.395 17.8411 169.687 18.4922C169.978 19.1432 170.124 19.9062 170.124 20.7812V20.7969C170.124 21.6771 169.978 22.4427 169.687 23.0938C169.395 23.7448 168.983 24.25 168.452 24.6094C167.926 24.9688 167.306 25.1484 166.593 25.1484C166.207 25.1484 165.843 25.0885 165.499 24.9688C165.16 24.8438 164.858 24.6719 164.593 24.4531C164.332 24.2344 164.124 23.974 163.968 23.6719H163.843V27.8125H162.483ZM166.28 23.9453C166.796 23.9453 167.236 23.8203 167.601 23.5703C167.965 23.3151 168.244 22.9531 168.437 22.4844C168.634 22.0104 168.733 21.4479 168.733 20.7969V20.7812C168.733 20.125 168.634 19.5625 168.437 19.0938C168.244 18.625 167.965 18.2656 167.601 18.0156C167.236 17.7604 166.796 17.6328 166.28 17.6328C165.77 17.6328 165.33 17.7604 164.96 18.0156C164.59 18.2708 164.306 18.6328 164.108 19.1016C163.91 19.5703 163.812 20.1302 163.812 20.7812V20.7969C163.812 21.4427 163.91 22.0026 164.108 22.4766C164.306 22.9453 164.59 23.3073 164.96 23.5625C165.33 23.8177 165.77 23.9453 166.28 23.9453ZM172.327 25V13.2344H173.687V25H172.327ZM176.327 25V16.5781H177.687V25H176.327ZM177.015 14.9531C176.759 14.9531 176.538 14.862 176.351 14.6797C176.168 14.4922 176.077 14.2708 176.077 14.0156C176.077 13.7552 176.168 13.5339 176.351 13.3516C176.538 13.1693 176.759 13.0781 177.015 13.0781C177.275 13.0781 177.496 13.1693 177.679 13.3516C177.861 13.5339 177.952 13.7552 177.952 14.0156C177.952 14.2708 177.861 14.4922 177.679 14.6797C177.496 14.862 177.275 14.9531 177.015 14.9531Z" fill="white"/>
<path d="M71.7061 43.1855V41.3496H75.4951C76.4456 41.3496 77.1813 41.1055 77.7021 40.6172C78.223 40.1224 78.4834 39.4388 78.4834 38.5664V38.5469C78.4834 37.6615 78.223 36.9746 77.7021 36.4863C77.1813 35.998 76.4456 35.7539 75.4951 35.7539H71.7061V33.9082H76.042C76.9665 33.9082 77.777 34.1035 78.4736 34.4941C79.1768 34.8783 79.7269 35.4186 80.124 36.1152C80.5212 36.8053 80.7197 37.6094 80.7197 38.5273V38.5469C80.7197 39.4648 80.5212 40.2754 80.124 40.9785C79.7269 41.6751 79.1768 42.2188 78.4736 42.6094C77.777 42.9935 76.9665 43.1855 76.042 43.1855H71.7061ZM70.6025 48V33.9082H72.7998V48H70.6025ZM83.1709 48V33.3906H85.29V48H83.1709ZM91.1494 48.1855C90.4723 48.1855 89.8701 48.0553 89.3428 47.7949C88.8219 47.5345 88.4085 47.1699 88.1025 46.7012C87.8031 46.2259 87.6533 45.6693 87.6533 45.0312V45.0117C87.6533 44.3867 87.8063 43.8529 88.1123 43.4102C88.4183 42.9609 88.8643 42.6094 89.4502 42.3555C90.0361 42.0951 90.7458 41.9421 91.5791 41.8965L95.4854 41.6621V43.1562L91.8623 43.3809C91.1592 43.4199 90.6351 43.5729 90.29 43.8398C89.945 44.1068 89.7725 44.4714 89.7725 44.9336V44.9531C89.7725 45.4349 89.9548 45.8125 90.3193 46.0859C90.6839 46.3529 91.1527 46.4863 91.7256 46.4863C92.2399 46.4863 92.7021 46.3822 93.1123 46.1738C93.5225 45.959 93.8447 45.6725 94.0791 45.3145C94.3135 44.9564 94.4307 44.5495 94.4307 44.0938V40.8223C94.4307 40.2493 94.2484 39.8066 93.8838 39.4941C93.5257 39.1816 92.9984 39.0254 92.3018 39.0254C91.7028 39.0254 91.2178 39.1361 90.8467 39.3574C90.4756 39.5723 90.2314 39.8717 90.1143 40.2559L90.0947 40.3047H88.0635L88.0732 40.2168C88.1514 39.6374 88.376 39.1263 88.7471 38.6836C89.1247 38.2409 89.6195 37.8958 90.2314 37.6484C90.8499 37.3945 91.5661 37.2676 92.3799 37.2676C93.2588 37.2676 94.0075 37.4108 94.626 37.6973C95.251 37.9772 95.7262 38.3809 96.0518 38.9082C96.3773 39.429 96.54 40.054 96.54 40.7832V48H94.4307V46.4668H94.2939C94.0856 46.8249 93.8252 47.1341 93.5127 47.3945C93.2002 47.6484 92.8454 47.8438 92.4482 47.9805C92.0511 48.1172 91.6182 48.1855 91.1494 48.1855ZM100.114 51.6523C99.9645 51.6523 99.8083 51.6458 99.6455 51.6328C99.4827 51.6263 99.333 51.6133 99.1963 51.5938V49.9336C99.3005 49.9466 99.4144 49.9564 99.5381 49.9629C99.6618 49.9759 99.7855 49.9824 99.9092 49.9824C100.404 49.9824 100.801 49.8717 101.101 49.6504C101.407 49.4355 101.641 49.0645 101.804 48.5371L101.97 48.0098L98.1416 37.4727H100.437L103.366 46.8574L102.771 45.9199H103.522L102.937 46.8574L105.856 37.4727H108.093L104.177 48.4199C103.89 49.2337 103.568 49.875 103.21 50.3438C102.852 50.819 102.422 51.1543 101.921 51.3496C101.426 51.5514 100.824 51.6523 100.114 51.6523ZM120.173 48.3223C119.112 48.3223 118.187 48.1562 117.399 47.8242C116.612 47.4857 115.987 47.0202 115.524 46.4277C115.069 45.8288 114.808 45.1289 114.743 44.3281L114.733 44.2012H116.892L116.901 44.3086C116.953 44.7383 117.123 45.1094 117.409 45.4219C117.702 45.7344 118.093 45.9785 118.581 46.1543C119.076 46.3236 119.636 46.4082 120.261 46.4082C120.866 46.4082 121.397 46.3171 121.853 46.1348C122.315 45.9525 122.676 45.6953 122.937 45.3633C123.197 45.0312 123.327 44.6471 123.327 44.2109V44.2012C123.327 43.6543 123.122 43.2083 122.712 42.8633C122.308 42.5117 121.638 42.235 120.7 42.0332L119.167 41.7012C117.748 41.3952 116.709 40.9134 116.052 40.2559C115.394 39.5918 115.065 38.7422 115.065 37.707V37.6973C115.072 36.8835 115.293 36.1706 115.729 35.5586C116.166 34.9401 116.768 34.4583 117.536 34.1133C118.304 33.7617 119.187 33.5859 120.183 33.5859C121.172 33.5859 122.038 33.7585 122.78 34.1035C123.529 34.4421 124.118 34.9076 124.548 35.5C124.984 36.0859 125.228 36.75 125.28 37.4922L125.29 37.6289H123.161L123.142 37.5117C123.076 37.1081 122.914 36.7565 122.653 36.457C122.399 36.1576 122.058 35.9232 121.628 35.7539C121.205 35.5781 120.71 35.4935 120.144 35.5C119.59 35.5 119.099 35.5846 118.669 35.7539C118.239 35.9167 117.901 36.1543 117.653 36.4668C117.412 36.7793 117.292 37.1536 117.292 37.5898V37.5996C117.292 38.1204 117.491 38.5534 117.888 38.8984C118.291 39.2435 118.946 39.5137 119.851 39.709L121.384 40.041C122.367 40.2493 123.164 40.526 123.776 40.8711C124.388 41.2161 124.838 41.6426 125.124 42.1504C125.41 42.6582 125.554 43.2637 125.554 43.9668V43.9766C125.554 44.8685 125.332 45.64 124.89 46.291C124.453 46.9355 123.832 47.4368 123.024 47.7949C122.224 48.1465 121.273 48.3223 120.173 48.3223ZM131.872 48.0977C130.746 48.0977 129.925 47.873 129.411 47.4238C128.897 46.9746 128.64 46.2422 128.64 45.2266V39.1523H127.028V37.4727H128.64V34.7969H130.808V37.4727H133.005V39.1523H130.808V44.8066C130.808 45.36 130.922 45.7572 131.149 45.998C131.384 46.2389 131.752 46.3594 132.253 46.3594C132.403 46.3594 132.533 46.3561 132.644 46.3496C132.754 46.3366 132.875 46.3268 133.005 46.3203V48C132.849 48.026 132.673 48.0488 132.478 48.0684C132.282 48.0879 132.08 48.0977 131.872 48.0977ZM139.626 48.2051C138.604 48.2051 137.718 47.987 136.97 47.5508C136.221 47.1081 135.645 46.4798 135.241 45.666C134.838 44.8457 134.636 43.8724 134.636 42.7461V42.7266C134.636 41.5938 134.838 40.6204 135.241 39.8066C135.651 38.9928 136.228 38.3678 136.97 37.9316C137.718 37.4889 138.601 37.2676 139.616 37.2676C140.645 37.2676 141.53 37.4889 142.272 37.9316C143.015 38.3678 143.588 38.9928 143.991 39.8066C144.401 40.6204 144.606 41.5938 144.606 42.7266V42.7461C144.606 43.8724 144.405 44.8457 144.001 45.666C143.597 46.4798 143.021 47.1081 142.272 47.5508C141.53 47.987 140.648 48.2051 139.626 48.2051ZM139.626 46.4277C140.218 46.4277 140.723 46.2812 141.14 45.9883C141.556 45.6953 141.875 45.2754 142.097 44.7285C142.325 44.1816 142.438 43.5208 142.438 42.7461V42.7266C142.438 41.9453 142.325 41.2812 142.097 40.7344C141.875 40.1875 141.553 39.7708 141.13 39.4844C140.713 39.1914 140.209 39.0449 139.616 39.0449C139.03 39.0449 138.526 39.1914 138.103 39.4844C137.686 39.7708 137.364 40.1875 137.136 40.7344C136.914 41.2812 136.804 41.9453 136.804 42.7266V42.7461C136.804 43.5208 136.914 44.1849 137.136 44.7383C137.364 45.2852 137.686 45.7051 138.103 45.998C138.526 46.2845 139.034 46.4277 139.626 46.4277ZM146.921 48V37.4727H149.05V39.1133H149.187C149.369 38.5339 149.691 38.0846 150.153 37.7656C150.616 37.4466 151.185 37.2871 151.862 37.2871C152.032 37.2871 152.194 37.2969 152.351 37.3164C152.513 37.3359 152.644 37.3555 152.741 37.375V39.3379C152.578 39.2988 152.406 39.2695 152.224 39.25C152.041 39.224 151.849 39.2109 151.647 39.2109C151.127 39.2109 150.671 39.3151 150.28 39.5234C149.89 39.7253 149.587 40.015 149.372 40.3926C149.157 40.7637 149.05 41.2031 149.05 41.7109V48H146.921ZM158.728 48.2051C157.699 48.2051 156.813 47.9837 156.071 47.541C155.336 47.0983 154.769 46.4701 154.372 45.6562C153.975 44.8424 153.776 43.8789 153.776 42.7656V42.7559C153.776 41.6556 153.975 40.6953 154.372 39.875C154.769 39.0547 155.329 38.4167 156.052 37.9609C156.781 37.4987 157.637 37.2676 158.62 37.2676C159.603 37.2676 160.45 37.4889 161.159 37.9316C161.869 38.3743 162.412 38.9928 162.79 39.7871C163.174 40.5749 163.366 41.4961 163.366 42.5508V43.293H154.851V41.7793H162.321L161.296 43.1758V42.3457C161.296 41.5905 161.182 40.9688 160.954 40.4805C160.726 39.9857 160.41 39.6178 160.007 39.377C159.61 39.1296 159.151 39.0059 158.63 39.0059C158.109 39.0059 157.644 39.1328 157.233 39.3867C156.823 39.6406 156.498 40.0182 156.257 40.5195C156.022 41.0143 155.905 41.623 155.905 42.3457V43.1855C155.905 43.8757 156.022 44.4648 156.257 44.9531C156.491 45.4414 156.823 45.8158 157.253 46.0762C157.683 46.3366 158.19 46.4668 158.776 46.4668C159.219 46.4668 159.603 46.4017 159.929 46.2715C160.261 46.1413 160.531 45.9818 160.739 45.793C160.948 45.5977 161.094 45.3991 161.179 45.1973L161.208 45.1191H163.249L163.229 45.207C163.145 45.5716 162.989 45.9329 162.761 46.291C162.533 46.6426 162.23 46.9648 161.853 47.2578C161.481 47.5443 161.032 47.7754 160.505 47.9512C159.984 48.1204 159.392 48.2051 158.728 48.2051Z" fill="white"/>
</svg>
