<svg width="226" height="63" viewBox="0 0 226 63" fill="none" xmlns="http://www.w3.org/2000/svg">
<rect width="225.902" height="63" rx="31.5" fill="black"/>
<path d="M57.9195 25.2662C55.2978 26.9133 53.6785 29.7368 53.6785 32.874C53.6785 36.4035 55.7604 39.6191 58.9219 40.9525C58.305 42.9917 57.3797 44.874 56.2231 46.5995C54.5267 49.0309 52.7532 51.5407 50.1315 51.5407C47.5098 51.5407 46.7387 49.9721 43.6544 49.9721C40.6472 49.9721 39.5677 51.6191 37.1002 51.6191C34.6327 51.6191 32.9363 49.3446 31.0086 46.5211C28.464 42.5995 26.999 38.0505 26.9219 33.2662C26.9219 25.5015 31.8568 21.3446 36.7918 21.3446C39.4134 21.3446 41.5725 23.0701 43.1918 23.0701C44.7339 23.0701 47.2014 21.2662 50.1315 21.2662C53.2159 21.1878 56.146 22.678 57.9195 25.2662ZM48.7436 17.9721C50.0544 16.4035 50.7484 14.4427 50.8255 12.4035C50.8255 12.1682 50.8255 11.8544 50.7484 11.6191C48.5122 11.8544 46.4303 12.9525 44.9653 14.678C43.6544 16.1682 42.8833 18.0505 42.8062 20.0897C42.8062 20.325 42.8062 20.5603 42.8833 20.7956C43.0375 20.7956 43.2689 20.874 43.4231 20.874C45.505 20.7172 47.4327 19.6191 48.7436 17.9721Z" fill="white"/>
<path d="M85.2783 25.1484C84.4814 25.1484 83.7913 24.974 83.208 24.625C82.6299 24.2708 82.182 23.7682 81.8643 23.1172C81.5518 22.4661 81.3955 21.6927 81.3955 20.7969V20.7812C81.3955 19.8802 81.5518 19.1042 81.8643 18.4531C82.182 17.8021 82.6299 17.3021 83.208 16.9531C83.7913 16.6042 84.4814 16.4297 85.2783 16.4297C86.0804 16.4297 86.7705 16.6042 87.3486 16.9531C87.9268 17.3021 88.3721 17.8021 88.6846 18.4531C89.0023 19.1042 89.1611 19.8802 89.1611 20.7812V20.7969C89.1611 21.6927 89.0023 22.4661 88.6846 23.1172C88.3721 23.7682 87.9268 24.2708 87.3486 24.625C86.7705 24.974 86.0804 25.1484 85.2783 25.1484ZM85.2783 23.9453C85.8096 23.9453 86.2601 23.8203 86.6299 23.5703C86.9997 23.3203 87.2809 22.9609 87.4736 22.4922C87.6715 22.0234 87.7705 21.4583 87.7705 20.7969V20.7812C87.7705 20.1146 87.6715 19.5469 87.4736 19.0781C87.2809 18.6094 86.9997 18.2526 86.6299 18.0078C86.2601 17.7578 85.8096 17.6328 85.2783 17.6328C84.7471 17.6328 84.2965 17.7578 83.9268 18.0078C83.557 18.2526 83.2731 18.6094 83.0752 19.0781C82.8825 19.5469 82.7861 20.1146 82.7861 20.7812V20.7969C82.7861 21.4583 82.8825 22.0234 83.0752 22.4922C83.2731 22.9609 83.557 23.3203 83.9268 23.5703C84.2965 23.8203 84.7471 23.9453 85.2783 23.9453ZM95.458 25.1484C95.0674 25.1484 94.7054 25.0885 94.3721 24.9688C94.0387 24.849 93.7419 24.6797 93.4814 24.4609C93.221 24.237 93.0049 23.9688 92.833 23.6562H92.708V25H91.3486V13.2344H92.708V17.9062H92.833C92.9893 17.6042 93.1976 17.3438 93.458 17.125C93.7236 16.9062 94.0257 16.737 94.3643 16.6172C94.708 16.4922 95.0726 16.4297 95.458 16.4297C96.1715 16.4297 96.7913 16.6094 97.3174 16.9688C97.8486 17.3281 98.2601 17.8333 98.5518 18.4844C98.8434 19.1354 98.9893 19.901 98.9893 20.7812V20.7969C98.9893 21.6719 98.8434 22.4375 98.5518 23.0938C98.2601 23.7448 97.8486 24.25 97.3174 24.6094C96.7913 24.9688 96.1715 25.1484 95.458 25.1484ZM95.1455 23.9453C95.6611 23.9453 96.1012 23.8203 96.4658 23.5703C96.8304 23.3151 97.109 22.9531 97.3018 22.4844C97.4997 22.0104 97.5986 21.4479 97.5986 20.7969V20.7812C97.5986 20.125 97.4997 19.5625 97.3018 19.0938C97.109 18.625 96.8304 18.2656 96.4658 18.0156C96.1012 17.7604 95.6611 17.6328 95.1455 17.6328C94.6351 17.6328 94.195 17.7604 93.8252 18.0156C93.4554 18.2708 93.1715 18.6328 92.9736 19.1016C92.7757 19.5703 92.6768 20.1302 92.6768 20.7812V20.7969C92.6768 21.4427 92.7757 22.0026 92.9736 22.4766C93.1715 22.9453 93.4554 23.3073 93.8252 23.5625C94.195 23.8177 94.6351 23.9453 95.1455 23.9453ZM104.091 25.0625C103.226 25.0625 102.599 24.888 102.208 24.5391C101.823 24.1901 101.63 23.6146 101.63 22.8125V17.7031H100.302V16.5781H101.63V14.3984H103.036V16.5781H104.88V17.7031H103.036V22.4688C103.036 22.9635 103.13 23.3203 103.317 23.5391C103.505 23.7526 103.817 23.8594 104.255 23.8594C104.375 23.8594 104.476 23.8568 104.56 23.8516C104.648 23.8464 104.755 23.8385 104.88 23.8281V24.9844C104.75 25.0052 104.619 25.0234 104.489 25.0391C104.359 25.0547 104.226 25.0625 104.091 25.0625ZM110.239 25.1484C109.437 25.1484 108.747 24.9714 108.169 24.6172C107.596 24.263 107.153 23.763 106.841 23.1172C106.534 22.4661 106.38 21.7005 106.38 20.8203V20.8125C106.38 19.9427 106.534 19.1797 106.841 18.5234C107.153 17.8672 107.593 17.3542 108.161 16.9844C108.729 16.6146 109.393 16.4297 110.153 16.4297C110.919 16.4297 111.575 16.6068 112.122 16.9609C112.674 17.3151 113.096 17.8099 113.388 18.4453C113.685 19.0755 113.833 19.8099 113.833 20.6484V21.1797H107.083V20.0938H113.138L112.466 21.0859V20.5469C112.466 19.8854 112.367 19.3411 112.169 18.9141C111.971 18.487 111.698 18.1693 111.349 17.9609C111 17.7474 110.599 17.6406 110.146 17.6406C109.692 17.6406 109.286 17.7526 108.927 17.9766C108.573 18.1953 108.291 18.5208 108.083 18.9531C107.875 19.3854 107.771 19.9167 107.771 20.5469V21.0859C107.771 21.6849 107.872 22.1979 108.075 22.625C108.278 23.0469 108.567 23.3724 108.942 23.6016C109.317 23.8255 109.76 23.9375 110.271 23.9375C110.651 23.9375 110.981 23.8854 111.263 23.7812C111.544 23.6771 111.776 23.5443 111.958 23.3828C112.14 23.2214 112.268 23.0573 112.341 22.8906L112.372 22.8203H113.731L113.716 22.8828C113.643 23.1693 113.513 23.4479 113.325 23.7188C113.143 23.9844 112.906 24.2266 112.614 24.4453C112.323 24.6589 111.976 24.8307 111.575 24.9609C111.179 25.0859 110.734 25.1484 110.239 25.1484ZM115.942 25V16.5781H117.302V17.8438H117.427C117.64 17.3958 117.948 17.0495 118.349 16.8047C118.75 16.5547 119.26 16.4297 119.88 16.4297C120.828 16.4297 121.554 16.7005 122.06 17.2422C122.57 17.7786 122.825 18.5469 122.825 19.5469V25H121.466V19.875C121.466 19.1146 121.304 18.5521 120.981 18.1875C120.664 17.8177 120.169 17.6328 119.497 17.6328C119.049 17.6328 118.661 17.7292 118.333 17.9219C118.005 18.1146 117.75 18.388 117.567 18.7422C117.39 19.0964 117.302 19.5208 117.302 20.0156V25H115.942ZM128.724 25.1484C127.922 25.1484 127.231 24.9714 126.653 24.6172C126.08 24.263 125.638 23.763 125.325 23.1172C125.018 22.4661 124.864 21.7005 124.864 20.8203V20.8125C124.864 19.9427 125.018 19.1797 125.325 18.5234C125.638 17.8672 126.078 17.3542 126.646 16.9844C127.213 16.6146 127.877 16.4297 128.638 16.4297C129.403 16.4297 130.06 16.6068 130.606 16.9609C131.159 17.3151 131.58 17.8099 131.872 18.4453C132.169 19.0755 132.317 19.8099 132.317 20.6484V21.1797H125.567V20.0938H131.622L130.95 21.0859V20.5469C130.95 19.8854 130.851 19.3411 130.653 18.9141C130.455 18.487 130.182 18.1693 129.833 17.9609C129.484 17.7474 129.083 17.6406 128.63 17.6406C128.177 17.6406 127.771 17.7526 127.411 17.9766C127.057 18.1953 126.776 18.5208 126.567 18.9531C126.359 19.3854 126.255 19.9167 126.255 20.5469V21.0859C126.255 21.6849 126.356 22.1979 126.56 22.625C126.763 23.0469 127.052 23.3724 127.427 23.6016C127.802 23.8255 128.244 23.9375 128.755 23.9375C129.135 23.9375 129.466 23.8854 129.747 23.7812C130.028 23.6771 130.26 23.5443 130.442 23.3828C130.625 23.2214 130.752 23.0573 130.825 22.8906L130.856 22.8203H132.216L132.2 22.8828C132.127 23.1693 131.997 23.4479 131.81 23.7188C131.627 23.9844 131.39 24.2266 131.099 24.4453C130.807 24.6589 130.461 24.8307 130.06 24.9609C129.664 25.0859 129.218 25.1484 128.724 25.1484ZM134.231 25V24.0156L139.091 17.8281V17.7031H134.239V16.5781H140.692V17.5859L135.856 23.75V23.875H140.716V25H134.231ZM147.63 25V13.2344H148.989V25H147.63ZM151.591 18.1719L152.271 13.7266H153.825L152.599 18.1719H151.591ZM157.802 25.1484C157.271 25.1484 156.791 25.0469 156.364 24.8438C155.942 24.6406 155.606 24.3516 155.356 23.9766C155.112 23.6016 154.989 23.1589 154.989 22.6484V22.6328C154.989 22.1328 155.109 21.7057 155.349 21.3516C155.588 20.9922 155.937 20.7109 156.396 20.5078C156.854 20.3047 157.409 20.1849 158.06 20.1484L161.153 19.9609V21.0469L158.224 21.2344C157.583 21.2708 157.114 21.4036 156.817 21.6328C156.526 21.862 156.38 22.1849 156.38 22.6016V22.6172C156.38 23.0443 156.541 23.3776 156.864 23.6172C157.187 23.8516 157.593 23.9688 158.083 23.9688C158.547 23.9688 158.958 23.8776 159.317 23.6953C159.677 23.5078 159.958 23.2552 160.161 22.9375C160.369 22.6198 160.474 22.2604 160.474 21.8594V19.2344C160.474 18.7135 160.315 18.3177 159.997 18.0469C159.685 17.7708 159.213 17.6328 158.583 17.6328C158.078 17.6328 157.664 17.724 157.341 17.9062C157.018 18.0833 156.802 18.3359 156.692 18.6641L156.685 18.6875H155.325L155.333 18.6406C155.406 18.1979 155.588 17.8125 155.88 17.4844C156.177 17.151 156.56 16.8932 157.028 16.7109C157.497 16.5234 158.031 16.4297 158.63 16.4297C159.317 16.4297 159.898 16.5417 160.372 16.7656C160.851 16.9896 161.213 17.3125 161.458 17.7344C161.708 18.151 161.833 18.651 161.833 19.2344V25H160.474V23.7578H160.349C160.172 24.0547 159.955 24.3073 159.7 24.5156C159.45 24.724 159.166 24.8828 158.849 24.9922C158.531 25.0964 158.182 25.1484 157.802 25.1484ZM164.317 27.8125V16.5781H165.677V17.9219H165.802C165.974 17.6094 166.19 17.3438 166.45 17.125C166.711 16.901 167.007 16.7292 167.341 16.6094C167.674 16.4896 168.036 16.4297 168.427 16.4297C169.14 16.4297 169.76 16.612 170.286 16.9766C170.817 17.3359 171.229 17.8411 171.521 18.4922C171.812 19.1432 171.958 19.9062 171.958 20.7812V20.7969C171.958 21.6771 171.812 22.4427 171.521 23.0938C171.229 23.7448 170.817 24.25 170.286 24.6094C169.76 24.9688 169.14 25.1484 168.427 25.1484C168.041 25.1484 167.677 25.0885 167.333 24.9688C166.994 24.8438 166.692 24.6719 166.427 24.4531C166.166 24.2344 165.958 23.974 165.802 23.6719H165.677V27.8125H164.317ZM168.114 23.9453C168.63 23.9453 169.07 23.8203 169.435 23.5703C169.799 23.3151 170.078 22.9531 170.271 22.4844C170.468 22.0104 170.567 21.4479 170.567 20.7969V20.7812C170.567 20.125 170.468 19.5625 170.271 19.0938C170.078 18.625 169.799 18.2656 169.435 18.0156C169.07 17.7604 168.63 17.6328 168.114 17.6328C167.604 17.6328 167.164 17.7604 166.794 18.0156C166.424 18.2708 166.14 18.6328 165.942 19.1016C165.744 19.5703 165.646 20.1302 165.646 20.7812V20.7969C165.646 21.4427 165.744 22.0026 165.942 22.4766C166.14 22.9453 166.424 23.3073 166.794 23.5625C167.164 23.8177 167.604 23.9453 168.114 23.9453ZM174.083 27.8125V16.5781H175.442V17.9219H175.567C175.739 17.6094 175.955 17.3438 176.216 17.125C176.476 16.901 176.773 16.7292 177.106 16.6094C177.44 16.4896 177.802 16.4297 178.192 16.4297C178.906 16.4297 179.526 16.612 180.052 16.9766C180.583 17.3359 180.994 17.8411 181.286 18.4922C181.578 19.1432 181.724 19.9062 181.724 20.7812V20.7969C181.724 21.6771 181.578 22.4427 181.286 23.0938C180.994 23.7448 180.583 24.25 180.052 24.6094C179.526 24.9688 178.906 25.1484 178.192 25.1484C177.807 25.1484 177.442 25.0885 177.099 24.9688C176.76 24.8438 176.458 24.6719 176.192 24.4531C175.932 24.2344 175.724 23.974 175.567 23.6719H175.442V27.8125H174.083ZM177.88 23.9453C178.396 23.9453 178.836 23.8203 179.2 23.5703C179.565 23.3151 179.843 22.9531 180.036 22.4844C180.234 22.0104 180.333 21.4479 180.333 20.7969V20.7812C180.333 20.125 180.234 19.5625 180.036 19.0938C179.843 18.625 179.565 18.2656 179.2 18.0156C178.836 17.7604 178.396 17.6328 177.88 17.6328C177.369 17.6328 176.929 17.7604 176.56 18.0156C176.19 18.2708 175.906 18.6328 175.708 19.1016C175.51 19.5703 175.411 20.1302 175.411 20.7812V20.7969C175.411 21.4427 175.51 22.0026 175.708 22.4766C175.906 22.9453 176.19 23.3073 176.56 23.5625C176.929 23.8177 177.369 23.9453 177.88 23.9453ZM183.927 25V13.2344H185.286V25H183.927ZM187.927 25V16.5781H189.286V25H187.927ZM188.614 14.9531C188.359 14.9531 188.138 14.862 187.95 14.6797C187.768 14.4922 187.677 14.2708 187.677 14.0156C187.677 13.7552 187.768 13.5339 187.95 13.3516C188.138 13.1693 188.359 13.0781 188.614 13.0781C188.875 13.0781 189.096 13.1693 189.278 13.3516C189.461 13.5339 189.552 13.7552 189.552 14.0156C189.552 14.2708 189.461 14.4922 189.278 14.6797C189.096 14.862 188.875 14.9531 188.614 14.9531Z" fill="white"/>
<path d="M81.1377 48L86.2256 33.9082H88.0029V36.3496H87.3486L83.4424 48H81.1377ZM83.5986 44.1914L84.2139 42.4336H90.6201L91.2354 44.1914H83.5986ZM91.3916 48L87.4854 36.3496V33.9082H88.5986L93.6963 48H91.3916ZM95.6885 51.5059V37.4727H97.8174V39.1621H97.9541C98.1559 38.7715 98.4163 38.4362 98.7354 38.1562C99.0544 37.8763 99.4189 37.6615 99.8291 37.5117C100.246 37.362 100.701 37.2871 101.196 37.2871C102.088 37.2871 102.86 37.5117 103.511 37.9609C104.168 38.4036 104.676 39.0319 105.034 39.8457C105.392 40.6595 105.571 41.6198 105.571 42.7266V42.7461C105.571 43.8594 105.392 44.8229 105.034 45.6367C104.676 46.4505 104.172 47.0788 103.521 47.5215C102.869 47.9642 102.098 48.1855 101.206 48.1855C100.718 48.1855 100.262 48.1107 99.8389 47.9609C99.4222 47.8047 99.0511 47.5866 98.7256 47.3066C98.4001 47.0267 98.1429 46.6947 97.9541 46.3105H97.8174V51.5059H95.6885ZM100.601 46.3691C101.187 46.3691 101.688 46.2227 102.104 45.9297C102.521 45.6367 102.84 45.2201 103.062 44.6797C103.289 44.1393 103.403 43.4948 103.403 42.7461V42.7266C103.403 41.9714 103.289 41.3236 103.062 40.7832C102.84 40.2428 102.521 39.8294 102.104 39.543C101.688 39.25 101.187 39.1035 100.601 39.1035C100.028 39.1035 99.5296 39.25 99.1064 39.543C98.6833 39.8359 98.3577 40.2526 98.1299 40.793C97.902 41.3333 97.7881 41.9779 97.7881 42.7266V42.7461C97.7881 43.4883 97.902 44.1296 98.1299 44.6699C98.3643 45.2103 98.6898 45.6302 99.1064 45.9297C99.5296 46.2227 100.028 46.3691 100.601 46.3691ZM107.896 51.5059V37.4727H110.024V39.1621H110.161C110.363 38.7715 110.623 38.4362 110.942 38.1562C111.261 37.8763 111.626 37.6615 112.036 37.5117C112.453 37.362 112.909 37.2871 113.403 37.2871C114.295 37.2871 115.067 37.5117 115.718 37.9609C116.375 38.4036 116.883 39.0319 117.241 39.8457C117.599 40.6595 117.778 41.6198 117.778 42.7266V42.7461C117.778 43.8594 117.599 44.8229 117.241 45.6367C116.883 46.4505 116.379 47.0788 115.728 47.5215C115.076 47.9642 114.305 48.1855 113.413 48.1855C112.925 48.1855 112.469 48.1107 112.046 47.9609C111.629 47.8047 111.258 47.5866 110.933 47.3066C110.607 47.0267 110.35 46.6947 110.161 46.3105H110.024V51.5059H107.896ZM112.808 46.3691C113.394 46.3691 113.895 46.2227 114.312 45.9297C114.728 45.6367 115.047 45.2201 115.269 44.6797C115.496 44.1393 115.61 43.4948 115.61 42.7461V42.7266C115.61 41.9714 115.496 41.3236 115.269 40.7832C115.047 40.2428 114.728 39.8294 114.312 39.543C113.895 39.25 113.394 39.1035 112.808 39.1035C112.235 39.1035 111.737 39.25 111.313 39.543C110.89 39.8359 110.565 40.2526 110.337 40.793C110.109 41.3333 109.995 41.9779 109.995 42.7266V42.7461C109.995 43.4883 110.109 44.1296 110.337 44.6699C110.571 45.2103 110.897 45.6302 111.313 45.9297C111.737 46.2227 112.235 46.3691 112.808 46.3691ZM130.249 48.3223C129.188 48.3223 128.263 48.1562 127.476 47.8242C126.688 47.4857 126.063 47.0202 125.601 46.4277C125.145 45.8288 124.884 45.1289 124.819 44.3281L124.81 44.2012H126.968L126.978 44.3086C127.03 44.7383 127.199 45.1094 127.485 45.4219C127.778 45.7344 128.169 45.9785 128.657 46.1543C129.152 46.3236 129.712 46.4082 130.337 46.4082C130.942 46.4082 131.473 46.3171 131.929 46.1348C132.391 45.9525 132.752 45.6953 133.013 45.3633C133.273 45.0312 133.403 44.6471 133.403 44.2109V44.2012C133.403 43.6543 133.198 43.2083 132.788 42.8633C132.384 42.5117 131.714 42.235 130.776 42.0332L129.243 41.7012C127.824 41.3952 126.785 40.9134 126.128 40.2559C125.47 39.5918 125.142 38.7422 125.142 37.707V37.6973C125.148 36.8835 125.369 36.1706 125.806 35.5586C126.242 34.9401 126.844 34.4583 127.612 34.1133C128.381 33.7617 129.263 33.5859 130.259 33.5859C131.248 33.5859 132.114 33.7585 132.856 34.1035C133.605 34.4421 134.194 34.9076 134.624 35.5C135.06 36.0859 135.304 36.75 135.356 37.4922L135.366 37.6289H133.237L133.218 37.5117C133.153 37.1081 132.99 36.7565 132.729 36.457C132.476 36.1576 132.134 35.9232 131.704 35.7539C131.281 35.5781 130.786 35.4935 130.22 35.5C129.666 35.5 129.175 35.5846 128.745 35.7539C128.315 35.9167 127.977 36.1543 127.729 36.4668C127.489 36.7793 127.368 37.1536 127.368 37.5898V37.5996C127.368 38.1204 127.567 38.5534 127.964 38.8984C128.368 39.2435 129.022 39.5137 129.927 39.709L131.46 40.041C132.443 40.2493 133.241 40.526 133.853 40.8711C134.465 41.2161 134.914 41.6426 135.2 42.1504C135.487 42.6582 135.63 43.2637 135.63 43.9668V43.9766C135.63 44.8685 135.409 45.64 134.966 46.291C134.53 46.9355 133.908 47.4368 133.101 47.7949C132.3 48.1465 131.349 48.3223 130.249 48.3223ZM141.948 48.0977C140.822 48.0977 140.002 47.873 139.487 47.4238C138.973 46.9746 138.716 46.2422 138.716 45.2266V39.1523H137.104V37.4727H138.716V34.7969H140.884V37.4727H143.081V39.1523H140.884V44.8066C140.884 45.36 140.998 45.7572 141.226 45.998C141.46 46.2389 141.828 46.3594 142.329 46.3594C142.479 46.3594 142.609 46.3561 142.72 46.3496C142.83 46.3366 142.951 46.3268 143.081 46.3203V48C142.925 48.026 142.749 48.0488 142.554 48.0684C142.358 48.0879 142.157 48.0977 141.948 48.0977ZM149.702 48.2051C148.68 48.2051 147.795 47.987 147.046 47.5508C146.297 47.1081 145.721 46.4798 145.317 45.666C144.914 44.8457 144.712 43.8724 144.712 42.7461V42.7266C144.712 41.5938 144.914 40.6204 145.317 39.8066C145.728 38.9928 146.304 38.3678 147.046 37.9316C147.795 37.4889 148.677 37.2676 149.692 37.2676C150.721 37.2676 151.606 37.4889 152.349 37.9316C153.091 38.3678 153.664 38.9928 154.067 39.8066C154.478 40.6204 154.683 41.5938 154.683 42.7266V42.7461C154.683 43.8724 154.481 44.8457 154.077 45.666C153.674 46.4798 153.097 47.1081 152.349 47.5508C151.606 47.987 150.724 48.2051 149.702 48.2051ZM149.702 46.4277C150.295 46.4277 150.799 46.2812 151.216 45.9883C151.632 45.6953 151.951 45.2754 152.173 44.7285C152.401 44.1816 152.515 43.5208 152.515 42.7461V42.7266C152.515 41.9453 152.401 41.2812 152.173 40.7344C151.951 40.1875 151.629 39.7708 151.206 39.4844C150.789 39.1914 150.285 39.0449 149.692 39.0449C149.106 39.0449 148.602 39.1914 148.179 39.4844C147.762 39.7708 147.44 40.1875 147.212 40.7344C146.991 41.2812 146.88 41.9453 146.88 42.7266V42.7461C146.88 43.5208 146.991 44.1849 147.212 44.7383C147.44 45.2852 147.762 45.7051 148.179 45.998C148.602 46.2845 149.11 46.4277 149.702 46.4277ZM156.997 48V37.4727H159.126V39.1133H159.263C159.445 38.5339 159.767 38.0846 160.229 37.7656C160.692 37.4466 161.261 37.2871 161.938 37.2871C162.108 37.2871 162.271 37.2969 162.427 37.3164C162.59 37.3359 162.72 37.3555 162.817 37.375V39.3379C162.655 39.2988 162.482 39.2695 162.3 39.25C162.118 39.224 161.925 39.2109 161.724 39.2109C161.203 39.2109 160.747 39.3151 160.356 39.5234C159.966 39.7253 159.663 40.015 159.448 40.3926C159.233 40.7637 159.126 41.2031 159.126 41.7109V48H156.997ZM168.804 48.2051C167.775 48.2051 166.89 47.9837 166.147 47.541C165.412 47.0983 164.845 46.4701 164.448 45.6562C164.051 44.8424 163.853 43.8789 163.853 42.7656V42.7559C163.853 41.6556 164.051 40.6953 164.448 39.875C164.845 39.0547 165.405 38.4167 166.128 37.9609C166.857 37.4987 167.713 37.2676 168.696 37.2676C169.679 37.2676 170.526 37.4889 171.235 37.9316C171.945 38.3743 172.489 38.9928 172.866 39.7871C173.25 40.5749 173.442 41.4961 173.442 42.5508V43.293H164.927V41.7793H172.397L171.372 43.1758V42.3457C171.372 41.5905 171.258 40.9688 171.03 40.4805C170.802 39.9857 170.487 39.6178 170.083 39.377C169.686 39.1296 169.227 39.0059 168.706 39.0059C168.185 39.0059 167.72 39.1328 167.31 39.3867C166.899 39.6406 166.574 40.0182 166.333 40.5195C166.099 41.0143 165.981 41.623 165.981 42.3457V43.1855C165.981 43.8757 166.099 44.4648 166.333 44.9531C166.567 45.4414 166.899 45.8158 167.329 46.0762C167.759 46.3366 168.267 46.4668 168.853 46.4668C169.295 46.4668 169.679 46.4017 170.005 46.2715C170.337 46.1413 170.607 45.9818 170.815 45.793C171.024 45.5977 171.17 45.3991 171.255 45.1973L171.284 45.1191H173.325L173.306 45.207C173.221 45.5716 173.065 45.9329 172.837 46.291C172.609 46.6426 172.306 46.9648 171.929 47.2578C171.558 47.5443 171.108 47.7754 170.581 47.9512C170.06 48.1204 169.468 48.2051 168.804 48.2051Z" fill="white"/>
</svg>
